<?xml version="1.0" encoding="UTF-8" standalone="no"?>
<svg
   xmlns:dc="http://purl.org/dc/elements/1.1/"
   xmlns:cc="http://creativecommons.org/ns#"
   xmlns:rdf="http://www.w3.org/1999/02/22-rdf-syntax-ns#"
   xmlns:svg="http://www.w3.org/2000/svg"
   xmlns="http://www.w3.org/2000/svg"
   xmlns:sodipodi="http://sodipodi.sourceforge.net/DTD/sodipodi-0.dtd"
   xmlns:inkscape="http://www.inkscape.org/namespaces/inkscape"
   width="603pt"
   height="569pt"
   viewBox="0 0 603 569"
   version="1.1"
   id="svg2704"
   sodipodi:version="0.32"
   inkscape:version="0.46"
   sodipodi:docname="JeetKuneDo8.svg"
   inkscape:output_extension="org.inkscape.output.svg.inkscape">
  <metadata
     id="metadata2981">
    <rdf:RDF>
      <cc:Work
         rdf:about="">
        <dc:format>image/svg+xml</dc:format>
        <dc:type
           rdf:resource="http://purl.org/dc/dcmitype/StillImage" />
      </cc:Work>
    </rdf:RDF>
  </metadata>
  <sodipodi:namedview
     inkscape:window-height="718"
     inkscape:window-width="1024"
     inkscape:pageshadow="2"
     inkscape:pageopacity="0.0"
     guidetolerance="10.0"
     gridtolerance="10.0"
     objecttolerance="10.0"
     borderopacity="1.0"
     bordercolor="#666666"
     pagecolor="#ffffff"
     id="base"
     showgrid="false"
     inkscape:zoom="0.7"
     inkscape:cx="270.50748"
     inkscape:cy="355.625"
     inkscape:window-x="-4"
     inkscape:window-y="-4"
     inkscape:current-layer="surface0"
     showguides="true"
     inkscape:guide-bbox="true" />
  <defs
     id="defs2706">
    <inkscape:perspective
       sodipodi:type="inkscape:persp3d"
       inkscape:vp_x="0 : 355.625 : 1"
       inkscape:vp_y="0 : 1000 : 0"
       inkscape:vp_z="753.75 : 355.625 : 1"
       inkscape:persp3d-origin="376.875 : 237.08333 : 1"
       id="perspective2983" />
    <clipPath
       id="clip0">
      <rect
         width="603"
         height="569"
         id="rect2709" />
    </clipPath>
  </defs>
  <g
     id="surface0"
     clip-path="url(#clip0)"
     transform="translate(0.4,1.6)">
    <path
       style="opacity:1;fill:none;stroke:#fdfdfd;stroke-width:0.1;stroke-linecap:butt;stroke-linejoin:miter;stroke-miterlimit:10"
       d="M 0,0 L 603,0 L 603,569 L 0,569 L 0,0 z"
       id="path2712" />
    <path
       style="opacity:1;fill:#020202;fill-rule:nonzero;stroke:none"
       d="M 218.15,11.275 C 215.7565,11.294422 213.66356,12.920422 212.325,14.85 C 211.67146,18.361688 214.38562,21.239498 215.625,24.3 C 211.69095,27.200452 207.09653,28.870665 202.75,31 C 200.0311,32.230789 201.51742,35.723357 201.475,38 C 203.84275,38.148025 206.49699,39.465496 208.7,38.05 C 212.27753,35.828809 215.59395,33.040446 219.75,31.925 C 219.12321,33.506009 219.09961,35.728262 217.225,36.4 C 210.8775,39.569434 204.68765,43.150514 198.05,45.7 C 198.05569,47.827884 198.01228,49.971227 198.4,52.075 C 199.53499,53.079608 200.81517,53.882745 202.075,54.725 C 205.19189,52.649241 208.34927,50.591426 211.775,49.05 C 211.88102,51.105588 211.32178,53.380694 212.45,55.25 C 213.72216,57.530548 215.41518,59.549138 216.575,61.9 C 217.8639,64.219519 218.76524,67.271343 221.625,68.1 C 226.31472,69.633966 230.40937,66.019143 234.8,65.025 C 239.53545,63.448355 245.94911,61.830166 247.2,56.225 C 246.88405,50.231668 244.64728,44.294634 241.1,39.45 C 236.71586,40.094806 232.25969,41.026022 227.825,40.275 C 234.46818,36.674842 242.15657,36.112096 249.35,34.275 C 252.14419,33.657141 252.79537,30.720705 253.75,28.45 C 250.57427,27.534183 247.22325,26.290002 243.9,27.225 C 238.9874,28.367716 234.02881,29.823153 228.925,29.2 C 230.53721,26.350207 234.60396,23.638146 232.825,19.975 C 231.53264,17.155603 228.26019,17.396856 225.675,17.025 C 223.92659,14.77233 222.57467,11.266518 219.2,11.35 C 218.8476,11.283258 218.49193,11.272226 218.15,11.275 z M 229.725,49.55 C 230.25269,49.518761 230.79525,49.554031 231.35,49.725 C 234.20383,50.670102 235.15283,53.700408 236.05,56.25 C 233.16892,57.787809 230.13597,59.025629 226.975,59.85 C 225.76046,57.383282 224.56393,54.926959 223.375,52.45 C 225.37556,51.43833 227.43836,49.685368 229.725,49.55 z"
       id="path2718" />
    <path
       style="opacity:1;fill:#020202;fill-rule:nonzero;stroke:none"
       d="M 367,18.725 C 365.65326,19.044458 363.96222,19.400202 363.6,20.975 C 362.67398,24.417276 363.0949,28.08367 362.1,31.525 C 361.40162,34.992209 359.61971,38.609776 360.925,42.15 C 367.71021,46.35723 375.53102,48.582521 382.9,51.575 C 386.48948,43.514438 393.86497,37.461397 395.45,28.5 C 389.83766,25.817749 383.44486,25.843397 377.625,23.8 C 373.73895,22.854474 370.80546,19.828471 367,18.725 z M 372.45,30.8 C 375.66303,30.772614 378.87559,31.438764 381.45,33.5 C 379.95822,35.678574 378.57696,38.018802 376.5,39.7 C 374.57459,39.660083 372.69776,39.168042 370.825,38.8 C 370.8105,36.140562 370.96025,33.505258 371.075,30.85 C 371.53194,30.819044 371.99099,30.803912 372.45,30.8 z"
       id="path2722" />
    <path
       style="opacity:1;fill:none;stroke:#020202;stroke-width:0.1;stroke-linecap:butt;stroke-linejoin:miter;stroke-miterlimit:10"
       d="M 408.5534,23.531372 C 412.16859,24.378235 417.43382,24.698105 418.49774,29.085114 C 416.76277,37.50708 412.22686,44.985291 407.36373,51.965225 C 409.81336,55.655884 412.42153,59.284409 414.18075,63.377029 C 417.49534,70.896469 422.95365,77.350479 429.70107,82.019531 C 429.56156,82.686249 429.28253,84.019669 429.14302,84.686386 C 423.39755,85.443604 416.93055,85.151459 412.28578,81.275787 C 409.0243,78.539978 408.8704,73.999344 407.04525,70.425232 C 404.96453,66.239655 403.06277,61.969498 400.99423,57.779984 C 394.36964,58.764053 389.55769,64.275208 382.8998,65.190063 C 378.02253,66.557571 373.25112,64.19606 369.22166,61.662338 C 375.0138,57.118576 382.53274,56.345505 389.11204,53.509705 C 395.9084,49.679428 402.52166,44.554565 405.81364,37.269867 C 407.77451,32.94104 407.46183,28.078537 408.5534,23.531372 z"
       id="path2724" />
    <path
       style="opacity:1;fill:#020202;fill-rule:nonzero;stroke:none"
       d="M 408.5534,23.531372 C 412.16859,24.378235 417.43382,24.698105 418.49774,29.085114 C 416.76277,37.50708 412.22686,44.985291 407.36373,51.965225 C 409.81336,55.655884 412.42153,59.284409 414.18075,63.377029 C 417.49534,70.896469 422.95365,77.350479 429.70107,82.019531 C 429.56156,82.686249 429.28253,84.019669 429.14302,84.686386 C 423.39755,85.443604 416.93055,85.151459 412.28578,81.275787 C 409.0243,78.539978 408.8704,73.999344 407.04525,70.425232 C 404.96453,66.239655 403.06277,61.969498 400.99423,57.779984 C 394.36964,58.764053 389.55769,64.275208 382.8998,65.190063 C 378.02253,66.557571 373.25112,64.19606 369.22166,61.662338 C 375.0138,57.118576 382.53274,56.345505 389.11204,53.509705 C 395.9084,49.679428 402.52166,44.554565 405.81364,37.269867 C 407.77451,32.94104 407.46183,28.078537 408.5534,23.531372 z"
       id="path2726" />
    <path
       style="opacity:1;fill:none;stroke:#020202;stroke-width:0.1;stroke-linecap:butt;stroke-linejoin:miter;stroke-miterlimit:10"
       d="M 174.98358,28.169571 C 177.03015,27.240662 178.90415,29.003677 180.36205,30.225464 C 182.08703,31.876968 184.07655,33.570633 184.68583,35.985107 C 184.4396,38.900513 180.97602,39.440781 178.63967,39.638428 C 174.90345,38.890747 170.83552,35.550171 171.68902,31.349838 C 172.33479,29.912094 173.5763,28.835754 174.98358,28.169571 z"
       id="path2728" />
    <path
       style="opacity:1;fill:#020202;fill-rule:nonzero;stroke:none"
       d="M 174.98358,28.169571 C 177.03015,27.240662 178.90415,29.003677 180.36205,30.225464 C 182.08703,31.876968 184.07655,33.570633 184.68583,35.985107 C 184.4396,38.900513 180.97602,39.440781 178.63967,39.638428 C 174.90345,38.890747 170.83552,35.550171 171.68902,31.349838 C 172.33479,29.912094 173.5763,28.835754 174.98358,28.169571 z"
       id="path2730" />
    <path
       style="opacity:1;fill:none;stroke:#020202;stroke-width:0.1;stroke-linecap:butt;stroke-linejoin:miter;stroke-miterlimit:10"
       d="M 169.64019,47.156265 C 173.66035,44.407883 177.99096,40.935379 183.2046,42.273254 C 183.2456,44.410797 184.05131,46.953812 182.34013,48.688675 C 180.47245,50.873871 178.18849,52.920181 175.38809,53.767914 C 173.33196,53.922165 171.4354,52.77803 169.52624,52.165359 C 169.51835,50.494049 169.55358,48.823975 169.64019,47.156265 z"
       id="path2736" />
    <path
       style="opacity:1;fill:#020202;fill-rule:nonzero;stroke:none"
       d="M 169.64019,47.156265 C 173.66035,44.407883 177.99096,40.935379 183.2046,42.273254 C 183.2456,44.410797 184.05131,46.953812 182.34013,48.688675 C 180.47245,50.873871 178.18849,52.920181 175.38809,53.767914 C 173.33196,53.922165 171.4354,52.77803 169.52624,52.165359 C 169.51835,50.494049 169.55358,48.823975 169.64019,47.156265 z"
       id="path2738" />
    <path
       style="opacity:1;fill:none;stroke:#020202;stroke-width:0.1;stroke-linecap:butt;stroke-linejoin:miter;stroke-miterlimit:10"
       d="M 179.24627,63.097824 C 183.50103,57.997681 190.24548,56.755646 196.45359,55.763199 C 196.80165,56.368271 197.49774,57.578415 197.84577,58.183487 C 196.6349,60.715363 194.53465,63.072174 194.71862,66.044296 C 194.8085,69.507858 194.8982,72.993607 194.16345,76.405487 C 192.16953,76.844391 190.1784,77.285217 188.18316,77.704575 C 187.04032,74.702957 186.30166,71.559448 185.05741,68.598465 C 183.24133,66.640945 181.05802,65.062622 179.24627,63.097824 z"
       id="path2744" />
    <path
       style="opacity:1;fill:#020202;fill-rule:nonzero;stroke:none"
       d="M 179.24627,63.097824 C 183.50103,57.997681 190.24548,56.755646 196.45359,55.763199 C 196.80165,56.368271 197.49774,57.578415 197.84577,58.183487 C 196.6349,60.715363 194.53465,63.072174 194.71862,66.044296 C 194.8085,69.507858 194.8982,72.993607 194.16345,76.405487 C 192.16953,76.844391 190.1784,77.285217 188.18316,77.704575 C 187.04032,74.702957 186.30166,71.559448 185.05741,68.598465 C 183.24133,66.640945 181.05802,65.062622 179.24627,63.097824 z"
       id="path2746" />
    <path
       style="opacity:1;fill:#020202;fill-rule:nonzero;stroke:none"
       d="M 126.575,71.675 C 124.73798,71.645368 122.92294,71.922464 121.45,73.2 C 114.58757,78.376544 108.93518,85.199168 105.1,92.9 C 103.8661,95.08693 102.1491,98.00199 99.2,97.6 C 96.8451,95.74684 94.934984,93.40701 92.625,91.5 C 90.324784,93.12095 87.69964,94.85525 86.9,97.725 C 86.338784,101.4023 91.100872,102.25414 93.175,104.45 C 90.259032,110.01885 86.381864,115.3552 85.55,121.75 C 86.90008,121.86967 88.263152,122.06421 89.625,122.025 C 91.97984,121.09104 93.490728,118.91663 95.35,117.3 C 96.05508,121.59935 97.40342,125.96264 96.6,130.35 C 96.00383,134.52995 93.905488,138.54552 94.775,142.85 C 98.18664,143.15456 101.50104,141.86443 103,138.625 C 106.67527,130.77803 104.67137,121.87442 103.9,113.625 C 110.83769,113.7057 115.20821,119.5377 119.1,124.475 C 121.84278,128.05659 122.4578,132.8017 125.4,136.25 C 126.79534,136.83158 128.34718,136.80844 129.825,137.025 C 130.53333,135.25291 131.38441,133.50287 131.775,131.625 C 131.2351,128.03488 129.1584,124.98213 128,121.6 C 129.89643,117.08343 133.5784,113.47805 137.25,110.325 C 139.23802,113.38067 140.94138,116.60862 142.4,119.95 C 144.88154,119.63051 147.79773,119.27598 149.075,116.775 C 149.84945,114.29983 149.60731,111.42831 148.475,109.1 C 144.30957,103.76095 137.75721,101.20486 133,96.5 C 130.06555,94.25061 128.77772,90.641952 126.4,87.925 C 125.40566,87.602128 124.40248,87.549528 123.375,87.725 C 119.95743,90.862424 117.85205,95.06811 115,98.675 C 113.1749,100.91117 111.56738,103.32222 110.05,105.775 C 108.49969,105.375 106.96564,104.92943 105.45,104.425 C 107.92869,100.87326 111.15155,97.94095 113.675,94.425 C 116.54138,90.620688 118.83304,86.338072 122.225,82.95 C 124.43487,80.700232 127.30107,79.250032 129.55,77.05 C 130.39979,75.48652 129.75506,73.6166 129.85,71.925 C 128.7829,71.834816 127.67722,71.692776 126.575,71.675 z M 126.775,102.825 C 128.15639,104.31269 130.04863,105.76612 130.075,108 C 128.76351,110.38934 126.14195,111.47292 123.875,112.725 C 124.40888,109.31452 125.54946,106.03701 126.775,102.825 z"
       id="path2750" />
    <path
       style="opacity:1;fill:#020202;fill-rule:nonzero;stroke:none"
       d="M 128.38628,88.826582 C 129.06345,87.420432 129.76101,86.024442 130.48569,84.642722 C 130.63485,86.708372 130.74999,88.777442 130.86445,90.848012 C 130.24491,90.342662 129.00582,89.331932 128.38628,88.826582 z"
       id="path2754" />
    <path
       style="opacity:1;fill:#020202;fill-rule:nonzero;stroke:none"
       d="M 474.725,87.325 C 473.98084,89.089832 473.06488,90.81064 472.775,92.725 C 474.25897,97.87711 480.21959,99.60044 482.625,104.225 C 480.35529,106.79682 475.95472,109.34242 477.725,113.375 C 480.41699,118.05395 485.68088,120.42869 489.7,123.825 C 492.4165,122.56996 495.16331,121.33252 498.05,120.5 C 496.99472,123.5998 495.10572,126.26843 493.25,128.925 C 495.67452,132.33619 498.47328,135.46785 500.975,138.825 C 503.75298,138.61301 506.50675,138.17907 509.275,137.825 C 512.92692,142.42995 518.22092,145.09838 523.575,147.225 C 523.97139,145.76641 524.4778,144.33295 524.65,142.825 C 523.18334,139.10586 519.7488,136.65822 517.4,133.525 C 518.22083,130.64867 518.54341,127.68065 518.65,124.7 C 515.51446,124.18241 512.40523,124.77196 509.375,125.55 C 510.38527,123.61589 511.67045,121.78771 512.225,119.65 C 511.94039,118.1171 511.34273,116.65694 510.825,115.2 C 508.01527,115.99602 505.29958,117.04118 502.5,117.85 C 502.86727,114.43017 503.41599,111.03353 503.65,107.6 C 499.99655,107.64674 496.37825,108.35362 492.725,108.05 C 493.25959,105.67286 494.12122,103.35412 494.4,100.925 C 493.96597,99.37015 493.15618,97.97125 492.475,96.525 C 490.2702,97.03833 488.16024,98.5343 485.875,98.3 C 481.5927,95.17464 480.12165,89.047872 474.725,87.325 z M 486.325,110.425 C 488.10448,111.65838 489.48863,113.31516 490.55,115.2 C 489.07796,115.0175 487.60514,114.83867 486.15,114.625 C 486.18294,113.22795 486.25351,111.8181 486.325,110.425 z M 503.625,128 C 504.7625,128.0349 505.57034,129.91865 504.375,130.7 C 502.87458,131.88429 501.32672,129.26967 502.8,128.3 C 503.07718,128.07518 503.3625,127.99194 503.625,128 z"
       id="path2758" />
    <path
       style="opacity:1;fill:#020202;fill-rule:nonzero;stroke:none"
       d="M 497.41771,84.654536 C 502.29004,87.61143 504.52423,93.19975 508.89222,96.73848 C 511.55409,94.79106 514.17509,91.26806 517.92128,92.38685 C 519.91859,93.15832 523.00511,94.30433 522.16134,97.02781 C 520.38365,99.93698 517.05789,101.87446 516.08455,105.24438 C 519.88783,113.12823 528.36102,117.60075 532.1718,125.5104 C 532.66449,127.37928 531.58493,129.22094 530.56797,130.70688 C 527.67354,131.84428 523.65208,131.5283 521.77427,128.76739 C 519.3406,125.28151 518.39656,120.99505 515.99456,117.48486 C 510.62306,109.69572 503.98259,102.80574 496.39544,97.1531 C 491.8697,94.1006 494.66984,87.972652 497.41771,84.654536 z"
       id="path2762" />
    <path
       style="opacity:1;fill:none;stroke:#020202;stroke-width:0.1;stroke-linecap:butt;stroke-linejoin:miter;stroke-miterlimit:10"
       d="M 454.68307,102.68784 C 459.37734,102.62518 462.34797,106.63159 466.47305,108.13901 C 470.46441,109.68343 474.97773,111.99526 475.96877,116.57669 C 472.24211,117.42215 468.23602,118.78297 464.50729,117.1893 C 461.53745,116.06255 457.96699,115.42368 456.02387,112.66449 C 454.41157,109.62202 454.76644,106.01331 454.68307,102.68784 z"
       id="path2768" />
    <path
       style="opacity:1;fill:#020202;fill-rule:nonzero;stroke:none"
       d="M 454.68307,102.68784 C 459.37734,102.62518 462.34797,106.63159 466.47305,108.13901 C 470.46441,109.68343 474.97773,111.99526 475.96877,116.57669 C 472.24211,117.42215 468.23602,118.78297 464.50729,117.1893 C 461.53745,116.06255 457.96699,115.42368 456.02387,112.66449 C 454.41157,109.62202 454.76644,106.01331 454.68307,102.68784 z"
       id="path2770" />
    <path
       style="opacity:1;fill:none;stroke:#fa0000;stroke-width:0.1;stroke-linecap:butt;stroke-linejoin:miter;stroke-miterlimit:10"
       d="M 383.35612,111.7648 C 388.50663,110.14961 393.54528,108.13042 398.81761,106.92487 C 402.34954,105.99199 405.28955,108.83672 408.1732,110.40979 C 414.0731,114.57854 420.44543,118.0387 426.25411,122.33676 C 437.81513,131.68092 448.9369,141.71788 458.18814,153.40703 C 461.74789,158.15738 465.95228,162.40501 469.15498,167.42665 C 483.57682,187.28708 493.36027,210.37363 498.2015,234.40117 C 499.86714,245.89533 502.38943,257.34329 502.27624,269.01804 C 502.23362,285.27913 502.11466,301.71338 498.13177,317.5892 C 495.2684,333.74841 489.71246,349.332 482.60023,364.08418 C 479.18916,369.60707 477.09397,375.7876 473.93666,381.43036 C 470.53408,386.23927 467.1293,391.1236 465.07401,396.69624 C 472.57655,395.88849 479.30152,391.69994 486.90623,391.64287 C 484.51916,397.38454 479.80689,401.57664 475.81635,406.17709 C 470.44053,411.80522 464.34664,416.68733 458.52166,421.82771 C 450.30467,427.02354 442.36132,432.71606 433.66726,437.11595 C 423.74371,442.26224 412.95133,445.33366 402.32742,448.65318 C 394.0476,451.13098 385.3773,451.69124 376.93215,453.36691 C 373.29893,454.14748 369.5393,454.07074 365.94712,453.1317 C 370.87866,447.8248 378.02145,445.54152 383.49325,440.90822 C 388.58714,436.64613 394.06211,432.82713 398.86634,428.22909 C 419.05398,409.05817 433.49429,384.46797 442.99488,358.44228 C 443.5658,358.3345 444.70767,358.11894 445.27859,358.01115 C 446.04905,367.68279 445.43578,377.504 447.22796,387.06636 C 458.87209,370.6795 465.33294,351.37187 470.76809,332.2067 C 473.85369,321.43416 474.84179,310.20319 475.77847,299.0802 C 477.45443,285.70068 475.64759,272.20731 473.6293,258.97269 C 471.22334,244.7171 466.61886,230.93259 461.22572,217.55539 C 457.36007,209.03758 452.24384,201.15508 447.51541,193.10446 C 434.94592,175.32266 419.8198,159.01971 401.5903,146.94293 C 395.17205,142.15311 387.95091,138.64767 381.14776,134.47166 C 372.8997,129.41742 363.60404,126.52089 354.75222,122.75439 C 354.68638,122.10175 354.5547,120.79643 354.48885,120.14378 C 363.97364,116.89085 373.83082,114.89302 383.35612,111.7648 z"
       id="path2772" />
    <path
       style="opacity:1;fill:#fa0000;fill-rule:nonzero;stroke:none"
       d="M 383.35612,111.7648 C 388.50663,110.14961 393.54528,108.13042 398.81761,106.92487 C 402.34954,105.99199 405.28955,108.83672 408.1732,110.40979 C 414.0731,114.57854 420.44543,118.0387 426.25411,122.33676 C 437.81513,131.68092 448.9369,141.71788 458.18814,153.40703 C 461.74789,158.15738 465.95228,162.40501 469.15498,167.42665 C 483.57682,187.28708 493.36027,210.37363 498.2015,234.40117 C 499.86714,245.89533 502.38943,257.34329 502.27624,269.01804 C 502.23362,285.27913 502.11466,301.71338 498.13177,317.5892 C 495.2684,333.74841 489.71246,349.332 482.60023,364.08418 C 479.18916,369.60707 477.09397,375.7876 473.93666,381.43036 C 470.53408,386.23927 467.1293,391.1236 465.07401,396.69624 C 472.57655,395.88849 479.30152,391.69994 486.90623,391.64287 C 484.51916,397.38454 479.80689,401.57664 475.81635,406.17709 C 470.44053,411.80522 464.34664,416.68733 458.52166,421.82771 C 450.30467,427.02354 442.36132,432.71606 433.66726,437.11595 C 423.74371,442.26224 412.95133,445.33366 402.32742,448.65318 C 394.0476,451.13098 385.3773,451.69124 376.93215,453.36691 C 373.29893,454.14748 369.5393,454.07074 365.94712,453.1317 C 370.87866,447.8248 378.02145,445.54152 383.49325,440.90822 C 388.58714,436.64613 394.06211,432.82713 398.86634,428.22909 C 419.05398,409.05817 433.49429,384.46797 442.99488,358.44228 C 443.5658,358.3345 444.70767,358.11894 445.27859,358.01115 C 446.04905,367.68279 445.43578,377.504 447.22796,387.06636 C 458.87209,370.6795 465.33294,351.37187 470.76809,332.2067 C 473.85369,321.43416 474.84179,310.20319 475.77847,299.0802 C 477.45443,285.70068 475.64759,272.20731 473.6293,258.97269 C 471.22334,244.7171 466.61886,230.93259 461.22572,217.55539 C 457.36007,209.03758 452.24384,201.15508 447.51541,193.10446 C 434.94592,175.32266 419.8198,159.01971 401.5903,146.94293 C 395.17205,142.15311 387.95091,138.64767 381.14776,134.47166 C 372.8997,129.41742 363.60404,126.52089 354.75222,122.75439 C 354.68638,122.10175 354.5547,120.79643 354.48885,120.14378 C 363.97364,116.89085 373.83082,114.89302 383.35612,111.7648 z"
       id="path2774" />
    <path
       style="opacity:1;fill:none;stroke:#020202;stroke-width:0.1;stroke-linecap:butt;stroke-linejoin:miter;stroke-miterlimit:10"
       d="M 462.04402,125.78197 C 466.72657,124.86395 471.46635,126.52243 476.14385,125.48384 C 479.02693,125.23532 482.92162,123.71727 484.91085,126.67685 C 487.73466,130.90984 490.26457,135.77397 489.73004,141.03961 C 490.03701,144.40756 488.89132,147.77737 486.27276,149.98637 C 484.74064,150.18085 482.85459,150.08266 481.95503,148.62312 C 479.2162,144.77881 479.62443,139.87189 479.33076,135.40771 C 475.24812,134.86235 471.0843,134.62705 467.11781,133.47841 C 463.97239,132.21559 462.64604,128.86676 462.04402,125.78197 z"
       id="path2788" />
    <path
       style="opacity:1;fill:#020202;fill-rule:nonzero;stroke:none"
       d="M 462.04402,125.78197 C 466.72657,124.86395 471.46635,126.52243 476.14385,125.48384 C 479.02693,125.23532 482.92162,123.71727 484.91085,126.67685 C 487.73466,130.90984 490.26457,135.77397 489.73004,141.03961 C 490.03701,144.40756 488.89132,147.77737 486.27276,149.98637 C 484.74064,150.18085 482.85459,150.08266 481.95503,148.62312 C 479.2162,144.77881 479.62443,139.87189 479.33076,135.40771 C 475.24812,134.86235 471.0843,134.62705 467.11781,133.47841 C 463.97239,132.21559 462.64604,128.86676 462.04402,125.78197 z"
       id="path2790" />
    <path
       style="opacity:1;fill:none;stroke:#020202;stroke-width:0.1;stroke-linecap:butt;stroke-linejoin:miter;stroke-miterlimit:10"
       d="M 493.09318,142.47218 C 494.76008,140.31551 497.60092,141.26678 499.89341,141.39377 C 501.12115,149.23979 504.29942,156.58252 505.85414,164.34024 C 498.98278,164.52255 491.71644,159.27969 491.57328,152.03909 C 491.6703,148.88063 490.18411,144.77141 493.09318,142.47218 z"
       id="path2800" />
    <path
       style="opacity:1;fill:#020202;fill-rule:nonzero;stroke:none"
       d="M 493.09318,142.47218 C 494.76008,140.31551 497.60092,141.26678 499.89341,141.39377 C 501.12115,149.23979 504.29942,156.58252 505.85414,164.34024 C 498.98278,164.52255 491.71644,159.27969 491.57328,152.03909 C 491.6703,148.88063 490.18411,144.77141 493.09318,142.47218 z"
       id="path2802" />
    <path
       style="opacity:1;fill:#020202;fill-rule:nonzero;stroke:none"
       d="M 72.8,184.925 C 70.915982,184.91049 69.062131,185.63176 68.025,187.35 C 65.902655,191.2265 65.395141,195.72974 63.875,199.85 C 61.117432,199.32541 58.243468,198.7789 55.5,199.7 C 52.166245,200.80544 48.64666,200.08054 45.225,200.05 C 44.120844,202.34928 43.223654,204.75972 42.15,207.075 C 39.997641,206.50556 37.848995,205.99616 35.675,205.525 C 35.843823,204.2369 36.13698,202.96758 36.575,201.75 C 39.49161,200.38258 42.619192,199.39547 45.275,197.525 C 48.072135,195.01455 49.678762,191.45954 50.2,187.775 C 49.588641,187.59368 48.386361,187.23134 47.775,187.05 C 44.50611,185.80267 42.463926,190.16158 39.25,189.925 C 37.253617,190.11751 34.622667,189.476 33.45,191.6 C 31.646365,194.886 31.114238,198.676 29.925,202.2 C 28.244809,208.48046 25.299258,214.2917 22.45,220.1 C 23.780948,221.86961 25.401562,223.46352 26.425,225.45 C 27.69035,229.16084 27.214919,233.16848 28,236.975 C 29.431336,236.8539 30.866283,236.81864 32.3,236.925 C 33.554487,233.45112 35.28348,229.89874 34.7,226.1 C 34.151584,222.09967 32.72991,218.26497 32.4,214.225 C 35.408941,214.20708 38.422894,214.34927 41.425,214.55 C 40.607418,218.32819 39.485814,222.01595 38.4,225.725 C 37.958487,227.47821 37.215689,229.58968 38.525,231.175 C 42.912223,233.63337 48.52455,232.05468 52.675,235.075 C 60.132748,239.78656 64.104937,248.19167 66.825,256.275 C 68.448245,256.23476 70.05212,256.16517 71.675,256.075 C 72.352795,253.63509 73.350136,251.02514 72.35,248.525 C 69.697015,240.62486 63.923571,234.1982 57.7,228.85 C 59.711123,227.30442 62.098586,226.01467 63.425,223.775 C 65.728741,219.10319 66.49544,213.88945 67.7,208.875 C 69.151447,203.68303 70.765212,198.51318 73.175,193.675 C 77.144712,195.0303 80.375376,197.78411 83.275,200.725 C 80.654048,201.23289 78.013648,201.58027 75.4,202.125 C 74.829104,205.86752 73.185717,209.33278 72.45,213.025 C 72.396121,220.08892 83.302816,221.55222 86.75,216.325 C 85.297656,214.17433 83.627944,212.17117 82.175,210.025 C 84.031568,208.74045 86.416088,207.97433 87.75,206.075 C 88.909088,203.12459 89.479208,199.96482 90.825,197.075 C 87.03676,192.07044 81.804536,188.19541 76.075,185.7 C 75.07804,185.21713 73.930408,184.93371 72.8,184.925 z M 51.3,207.725 C 51.227609,211.34365 50.29259,214.92605 48.45,218.05 C 48.261738,214.48482 47.774564,209.90425 51.3,207.725 z M 59.475,208.95 C 60.060631,210.85294 61.8579,212.90701 60.8,214.95 C 58.996971,219.19586 57.913587,223.90851 54.675,227.375 C 54.628738,220.97914 56.406458,214.53855 59.475,208.95 z"
       id="path2814" />
    <path
       style="opacity:1;fill:#020202;fill-rule:nonzero;stroke:none"
       d="M 562.5,186.575 C 556.9978,188.75777 551.65946,191.44505 545.825,192.65 C 538.0001,194.18771 530.31047,196.43906 522.375,197.375 C 518.54802,197.74144 515.1703,199.87237 513.15,203.125 C 515.25579,204.42833 517.44313,205.55785 519.55,206.875 C 518.68843,210.73294 517.83402,214.59597 517.35,218.525 C 519.30989,219.75869 521.14664,221.72642 523.65,221.625 C 529.99541,221.45 535.80046,218.52182 541.8,216.8 C 548.04304,215.80431 553.96904,213.50282 559.55,210.575 C 559.57956,208.61882 559.62512,206.67667 559.65,204.725 C 561.05246,205.69194 562.36082,206.82203 563.925,207.55 C 565.88737,207.83868 567.16429,205.9811 568.625,205 C 567.28973,202.53988 565.63588,200.17566 564.9,197.45 C 564.89452,195.20702 565.53526,193.01921 565.425,190.775 C 564.79135,189.16323 563.53006,187.92207 562.5,186.575 z M 549.275,201.35 C 549.61897,202.67181 550.01988,203.9768 550.475,205.275 C 549.056,205.2293 547.62963,205.1799 546.225,205.125 C 546.29642,204.0381 546.3818,202.95598 546.475,201.875 C 547.17323,201.74309 548.57676,201.4819 549.275,201.35 z M 539.25,205 C 539.23541,206.98822 539.20885,208.98389 539.125,210.975 C 537.64201,209.23954 536.55727,207.23581 535.85,205.075 C 536.70462,205.05866 538.39537,205.01632 539.25,205 z M 524.95,206.775 C 525.59698,206.77366 526.87801,206.77632 527.525,206.775 C 527.59213,208.05906 527.67387,209.33525 527.75,210.625 C 527.08706,210.49426 525.76293,210.23077 525.1,210.1 C 525.04026,208.98661 524.99096,207.8832 524.95,206.775 z"
       id="path2818" />
    <path
       style="opacity:1;fill:#020202;fill-rule:nonzero;stroke:none"
       d="M 74.842911,221.38225 C 78.812471,221.90816 81.806731,224.90107 84.860691,227.22399 C 82.786801,230.90189 78.370051,230.78315 74.693061,231.06246 C 76.999431,235.81795 77.538451,241.39405 74.689111,246.07309 C 71.591621,243.17841 69.936061,239.18282 67.978724,235.51035 C 66.770655,233.17847 69.179411,231.31861 70.210831,229.47596 C 72.181241,226.99958 71.149361,222.35375 74.842911,221.38225 z"
       id="path2842" />
    <path
       style="opacity:1;fill:#020202;fill-rule:nonzero;stroke:none"
       d="M 574.625,218.45 C 574.25356,218.47356 573.88849,218.52732 573.525,218.6 C 567.07325,219.79477 560.51672,220.87791 554.45,223.475 C 552.65552,224.24964 551.19819,225.66746 550.2,227.325 C 549.89251,229.24216 550.61275,231.12771 550.95,233 C 547.87074,234.02928 545.83369,236.56967 543.475,238.625 C 541.80137,238.33632 540.25423,237.59805 538.7,236.975 C 541.33417,234.80859 544.55536,233.37813 546.925,230.9 C 549.67091,228.12551 546.63069,221.66632 542.65,223.5 C 535.49171,225.4761 527.94772,225.12019 520.725,226.675 C 518.1626,227.24122 515.67026,230.77317 517.825,233.05 C 521.18331,237.70655 525.50632,241.91243 531.1,243.7 C 530.37654,241.10042 529.44758,238.56912 528.725,235.975 C 530.66822,235.98592 532.62003,236.01515 534.575,236.05 C 535.46619,239.35094 536.66976,242.569 537.925,245.75 C 536.17053,248.05849 534.24998,250.24434 532.775,252.75 C 529.37319,258.35063 530.68159,265.68682 533.95,271.05 C 535.22801,273.97292 538.13956,275.45506 541.125,276.075 C 540.13297,270.274 537.69116,264.41081 539.45,258.475 C 540.79521,254.95194 543.82207,252.47518 546.05,249.525 C 550.07882,249.65198 554.21495,249.91458 557.725,252.125 C 562.9537,253.76876 568.60422,253.76087 574.05,254.025 C 577.87122,254.56574 580.78978,251.48146 582.775,248.625 C 584.05222,243.40613 581.25022,238.47577 580.075,233.525 C 579.39872,230.31432 576.51764,227.26722 577.925,223.9 C 578.24288,222.33346 579.32773,220.42192 577.875,219.1 C 576.86755,218.56482 575.73931,218.37933 574.625,218.45 z M 567.875,229.7 C 569.43185,229.67493 571.00614,229.71782 572.575,229.825 C 573.83518,234.1445 574.54995,238.59595 575.975,242.875 C 574.78536,242.76791 573.62482,242.65356 572.45,242.55 C 571.89966,237.93061 569.1182,234.10209 567.875,229.7 z M 560.7,231.3 C 563.02003,235.06514 564.36894,239.32962 565.6,243.55 C 564.65766,243.59854 562.76734,243.70146 561.825,243.75 C 561.23271,239.62895 560.8225,235.45959 560.7,231.3 z M 552.125,239.8 C 553.19195,239.66241 554.41633,240.8545 553.525,241.975 C 552.57598,243.52942 550.00582,241.91266 551.2,240.425 C 551.43278,240.03504 551.76935,239.84586 552.125,239.8 z"
       id="path2846" />
    <path
       style="opacity:1;fill:none;stroke:#020202;stroke-width:0.1;stroke-linecap:butt;stroke-linejoin:miter;stroke-miterlimit:10"
       d="M 36.409097,294.34206 C 40.9452,295.80153 43.288446,300.50394 43.588861,304.99306 C 44.057047,312.03484 43.62153,319.19316 41.618295,325.99063 C 41.207727,327.78078 40.339044,329.64679 40.889597,331.50899 C 46.828745,336.11858 54.802377,338.10147 59.369241,344.46431 C 60.421182,347.6555 59.13006,350.8676 57.401224,353.54187 C 54.193185,352.1618 51.841211,349.57704 49.424417,347.16438 C 46.472559,344.17554 42.462244,342.70612 38.705499,341.03484 C 39.123849,346.2588 42.418039,351.92572 38.563135,356.63075 C 36.751352,355.70483 33.897424,355.63023 33.275003,353.33028 C 31.666025,349.13324 31.855646,344.24255 29.192911,340.47736 C 26.762872,338.91087 23.721719,338.98297 20.988824,338.32802 C 20.837335,336.41374 20.375864,334.43854 20.838251,332.54657 C 22.197382,331.06099 23.840051,329.88103 25.343576,328.55633 C 24.542169,323.37158 22.580911,318.49994 21.001489,313.53267 C 20.313425,311.59976 21.330286,309.65398 21.690424,307.77345 C 23.480524,307.93845 25.286325,308.06171 27.040918,308.48444 C 29.81257,314.27615 29.7353,321.12518 33.393625,326.59442 C 35.962091,321.4805 37.460245,315.74287 36.753107,309.99838 C 36.104486,304.80574 35.909006,299.55519 36.409097,294.34206 z"
       id="path2860" />
    <path
       style="opacity:1;fill:#020202;fill-rule:nonzero;stroke:none"
       d="M 36.409097,294.34206 C 40.9452,295.80153 43.288446,300.50394 43.588861,304.99306 C 44.057047,312.03484 43.62153,319.19316 41.618295,325.99063 C 41.207727,327.78078 40.339044,329.64679 40.889597,331.50899 C 46.828745,336.11858 54.802377,338.10147 59.369241,344.46431 C 60.421182,347.6555 59.13006,350.8676 57.401224,353.54187 C 54.193185,352.1618 51.841211,349.57704 49.424417,347.16438 C 46.472559,344.17554 42.462244,342.70612 38.705499,341.03484 C 39.123849,346.2588 42.418039,351.92572 38.563135,356.63075 C 36.751352,355.70483 33.897424,355.63023 33.275003,353.33028 C 31.666025,349.13324 31.855646,344.24255 29.192911,340.47736 C 26.762872,338.91087 23.721719,338.98297 20.988824,338.32802 C 20.837335,336.41374 20.375864,334.43854 20.838251,332.54657 C 22.197382,331.06099 23.840051,329.88103 25.343576,328.55633 C 24.542169,323.37158 22.580911,318.49994 21.001489,313.53267 C 20.313425,311.59976 21.330286,309.65398 21.690424,307.77345 C 23.480524,307.93845 25.286325,308.06171 27.040918,308.48444 C 29.81257,314.27615 29.7353,321.12518 33.393625,326.59442 C 35.962091,321.4805 37.460245,315.74287 36.753107,309.99838 C 36.104486,304.80574 35.909006,299.55519 36.409097,294.34206 z"
       id="path2862" />
    <path
       style="opacity:1;fill:#020202;fill-rule:nonzero;stroke:none"
       d="M 539.9,295.225 C 538.11873,299.15894 537.34389,303.79765 539.4,307.8 C 544.43331,316.77303 550.6895,324.97058 557.4,332.75 C 556.01834,333.93978 554.55451,335.05071 553.35,336.425 C 550.9064,341.52504 552.77865,347.55682 551.4,352.875 C 548.54245,353.37976 544.99701,350.79879 545.55,347.625 C 544.51318,340.08869 549.20325,331.8016 544.5,324.95 C 542.06714,326.00434 539.998,327.65292 538.15,329.525 C 535.02163,329.33827 531.19158,327.54425 528.475,329.575 C 525.76754,332.28467 529.99504,334.7211 531.625,336.625 C 529.92278,337.39351 528.21098,338.1617 526.525,338.95 C 526.44631,340.37297 526.43374,341.81641 526.475,343.25 C 528.68357,344.52655 531.01395,345.60417 533.275,346.8 C 531.99016,348.71197 530.56314,350.52673 529.45,352.55 C 530.20194,353.89692 530.97451,355.2413 531.775,356.575 C 534.39532,356.49338 536.98758,356.08462 539.6,355.825 C 539.81736,357.52738 540.03325,359.23644 540.225,360.95 C 535.79864,361.81647 531.34456,361.15095 527.025,360.1 C 526.66266,357.44073 526.48019,354.75002 526.1,352.1 C 522.64491,353.19596 518.77048,355.29904 518.225,359.275 C 517.41292,362.92643 520.51887,366.5159 524.15,366.85 C 531.34032,368.02566 538.36078,370.12493 545.65,370.725 C 546.4717,367.07274 546.35021,363.32826 546.125,359.625 C 550.46303,361.22939 554.61493,363.53288 559.275,364.1 C 559.62099,362.34573 559.94678,360.60058 560.275,358.85 C 562.99726,359.1031 565.75054,359.15766 568.45,358.6 C 568.26544,353.83417 567.74113,349.04994 568.7,344.325 C 571.00751,346.8815 573.15205,349.61967 575.85,351.8 C 576.76856,350.69755 577.94061,349.71595 578.525,348.375 C 578.94971,344.41839 575.97776,341.32722 573.725,338.45 C 576.63143,338.3382 579.40785,337.37978 582.075,336.275 C 580.47707,331.55579 575.71982,329.07617 573.45,324.775 C 571.22982,320.66682 569.84469,315.78081 565.775,313.025 C 561.9586,315.65174 560.66166,320.11032 559.15,324.225 C 554.86441,320.63974 551.67511,315.97115 549.075,311.075 C 547.3494,307.62839 546.99512,303.72823 545.925,300.075 C 545.2084,297.29541 542.10545,296.47803 539.9,295.225 z M 565.4,327.15 C 566.21619,327.15029 566.42821,327.74801 566.05,328.975 C 564.41621,329.51114 563.856,328.97732 564.375,327.35 C 564.77978,327.2138 565.12794,327.1499 565.4,327.15 z M 534.675,335.925 C 536.15252,335.97242 537.64122,336.07985 539.125,336.25 C 539.72423,340.14678 539.85479,344.09264 540.1,348.025 C 538.6786,347.5496 537.25993,347.07196 535.85,346.6 C 536.381,344.84659 537.26051,343.13926 537.25,341.275 C 536.70322,339.35665 535.5904,337.66794 534.675,335.925 z M 560,339.875 C 560.75957,343.49456 561.28713,347.26713 560.425,350.925 C 557.15034,348.04914 558.78998,343.35182 560,339.875 z"
       id="path2866" />
    <path
       style="opacity:1;fill:#020202;fill-rule:nonzero;stroke:none"
       d="M 68.85,306.725 C 66.896777,306.60882 64.905706,308.01303 63.725,309.7 C 61.227213,313.869 54.851287,311.4123 52.425,315.6 C 50.695615,322.50953 53.878368,329.4657 53.3,336.475 C 55.168469,336.52795 57.055477,336.47666 58.925,336.45 C 60.031858,338.4222 60.722344,340.77337 62.525,342.25 C 64.560477,342.29356 66.142467,340.80344 67.8,339.85 C 71.23338,337.51252 75.01568,335.72616 78.35,333.25 C 79.950416,332.24188 78.671608,330.55181 78.275,329.25 C 75.15084,322.43932 74.14284,314.87767 71.4,307.95 C 70.616032,307.15321 69.737829,306.77781 68.85,306.725 z M 67,319.225 C 68.037582,321.91223 69.91228,324.74486 68.875,327.725 C 67.249848,329.38102 64.90061,329.93171 62.775,330.65 C 62.179281,327.32308 61.59412,323.99295 61.325,320.625 C 63.21416,320.14019 65.10399,319.68137 67,319.225 z"
       id="path2870" />
    <path
       style="opacity:1;fill:#020202;fill-rule:nonzero;stroke:none"
       d="M 528.11498,312.62964 C 533.04617,313.4474 537.93555,316.70952 539.44518,321.65193 C 539.26528,324.34202 536.87048,325.83331 534.32569,325.21203 C 530.09521,322.61062 526.58445,317.81716 528.11498,312.62964 z"
       id="path2874" />
    <path
       style="opacity:1;fill:none;stroke:#020202;stroke-width:0.1;stroke-linecap:butt;stroke-linejoin:miter;stroke-miterlimit:10"
       d="M 61.146509,357.88345 C 64.462762,356.79794 67.815515,357.70664 71.022592,358.68797 C 74.035944,359.84524 76.863519,357.78363 79.625833,356.85234 C 82.858286,359.90672 81.79455,365.28517 78.19726,367.55745 C 75.144235,369.50893 72.974573,372.40497 70.845712,375.27176 C 69.432077,373.82678 68.107263,372.26654 67.202951,370.45017 C 65.10061,366.29889 62.333627,362.44357 61.146509,357.88345 z"
       id="path2896" />
    <path
       style="opacity:1;fill:#020202;fill-rule:nonzero;stroke:none"
       d="M 61.146509,357.88345 C 64.462762,356.79794 67.815515,357.70664 71.022592,358.68797 C 74.035944,359.84524 76.863519,357.78363 79.625833,356.85234 C 82.858286,359.90672 81.79455,365.28517 78.19726,367.55745 C 75.144235,369.50893 72.974573,372.40497 70.845712,375.27176 C 69.432077,373.82678 68.107263,372.26654 67.202951,370.45017 C 65.10061,366.29889 62.333627,362.44357 61.146509,357.88345 z"
       id="path2898" />
    <path
       style="opacity:1;fill:none;stroke:#020202;stroke-width:0.1;stroke-linecap:butt;stroke-linejoin:miter;stroke-miterlimit:10"
       d="M 43.874033,361.81482 C 48.597528,364.30202 47.927255,370.30548 47.415735,374.77927 C 46.212442,378.14284 43.11297,380.56297 39.756097,381.60141 C 37.57731,378.757 36.682672,374.93094 38.162256,371.56252 C 39.880441,368.20978 41.854257,364.99062 43.874033,361.81482 z"
       id="path2900" />
    <path
       style="opacity:1;fill:#020202;fill-rule:nonzero;stroke:none"
       d="M 43.874033,361.81482 C 48.597528,364.30202 47.927255,370.30548 47.415735,374.77927 C 46.212442,378.14284 43.11297,380.56297 39.756097,381.60141 C 37.57731,378.757 36.682672,374.93094 38.162256,371.56252 C 39.880441,368.20978 41.854257,364.99062 43.874033,361.81482 z"
       id="path2902" />
    <path
       style="opacity:1;fill:none;stroke:#020202;stroke-width:0.1;stroke-linecap:butt;stroke-linejoin:miter;stroke-miterlimit:10"
       d="M 51.205789,362.2961 C 51.834131,362.14949 53.090829,361.85629 53.719171,361.70969 C 56.216501,365.39186 59.377817,368.85538 60.551981,373.24341 C 61.374353,376.51057 58.377054,379.98044 54.973245,378.94769 C 50.466226,374.89299 49.044,367.92551 51.205789,362.2961 z"
       id="path2904" />
    <path
       style="opacity:1;fill:#020202;fill-rule:nonzero;stroke:none"
       d="M 51.205789,362.2961 C 51.834131,362.14949 53.090829,361.85629 53.719171,361.70969 C 56.216501,365.39186 59.377817,368.85538 60.551981,373.24341 C 61.374353,376.51057 58.377054,379.98044 54.973245,378.94769 C 50.466226,374.89299 49.044,367.92551 51.205789,362.2961 z"
       id="path2906" />
    <path
       style="opacity:1;fill:none;stroke:#020202;stroke-width:0.1;stroke-linecap:butt;stroke-linejoin:miter;stroke-miterlimit:10"
       d="M 96.24104,400.56934 C 98.67324,401.51685 101.65888,402.07974 102.95933,404.63896 C 106.11747,409.61409 109.68357,415.72528 107.43868,421.7646 C 106.78097,424.52806 103.86738,425.472 101.63354,426.62527 C 97.00009,418.75281 97.32961,409.34421 96.24104,400.56934 z"
       id="path2908" />
    <path
       style="opacity:1;fill:#020202;fill-rule:nonzero;stroke:none"
       d="M 96.24104,400.56934 C 98.67324,401.51685 101.65888,402.07974 102.95933,404.63896 C 106.11747,409.61409 109.68357,415.72528 107.43868,421.7646 C 106.78097,424.52806 103.86738,425.472 101.63354,426.62527 C 97.00009,418.75281 97.32961,409.34421 96.24104,400.56934 z"
       id="path2910" />
    <path
       style="opacity:1;fill:#020202;fill-rule:nonzero;stroke:none"
       d="M 81.675,408.175 C 83.031872,414.86157 86.82268,420.67767 88.875,427.075 C 86.372784,430.19931 82.6412,432.07071 80.1,435.2 C 81.10284,436.50921 81.978824,437.96193 83.275,439.025 C 87.448888,440.88145 90.424872,436.13758 93.725,434.4 C 94.580072,435.64699 95.38601,436.91786 96.125,438.25 C 92.355344,439.79015 88.549688,441.29396 85.075,443.45 C 86.460984,446.8659 89.501624,449.02498 92.125,451.425 C 89.928632,450.92582 87.471136,450.87913 85.6,449.5 C 82.526512,446.67343 80.54396,442.94326 78.625,439.3 C 77.808744,437.41867 75.473544,437.33904 73.825,436.625 C 73.039203,439.34421 72.064914,442.06774 71.95,444.925 C 73.709112,448.15419 76.685304,450.48109 79.125,453.175 C 77.338824,454.85802 75.432016,456.42768 73.775,458.25 C 74.63308,459.78019 75.42732,461.34934 76.475,462.775 C 79.549832,463.79522 82.567568,462.03789 85.5,461.3 C 88.926912,465.06565 92.38424,468.79617 95.8,472.575 C 97.20833,470.69971 100.8701,468.76396 98.95,466.125 C 96.75571,462.04002 93.70388,458.50042 90.7,455 C 92.458408,455.27484 94.364264,456.40422 96.075,455.4 C 99.24508,453.78108 102.19361,451.6871 105.65,450.675 C 105.64289,451.39968 105.60711,452.85033 105.6,453.575 C 103.40573,454.67569 100.24362,455.23116 99.525,457.975 C 98.38715,461.12119 100.9077,463.96167 103.425,465.5 C 106.0914,463.20114 108.71601,460.8335 111.65,458.875 C 115.92016,462.88997 120.51514,467.56564 126.65,468.2 C 130.41275,467.94681 132.45531,463.17531 129.55,460.525 C 125.33919,456.95159 120.46978,454.24686 116.1,450.875 C 111.56056,447.12504 107.97194,442.4016 103.725,438.35 C 99.64009,433.64407 100.23357,426.59805 96.225,421.825 C 92.387944,416.41084 88.701336,409.74418 81.675,408.175 z M 97.95,444.375 C 97.09885,446.54488 95.37107,448.09528 93.4,449.25 C 94.462864,447.23834 95.91812,445.46037 97.95,444.375 z"
       id="path2914" />
    <path
       style="opacity:1;fill:#020202;fill-rule:nonzero;stroke:none"
       d="M 485.45,420.625 C 484.43378,420.63425 483.44134,420.76694 482.45,421 C 481.88466,423.20459 480.89367,425.48364 481.45,427.8 C 481.85622,430.14679 483.18274,432.30858 483.2,434.725 C 481.1567,438.61091 478.68294,442.26148 476.3,445.95 C 473.97734,444.7112 471.67767,443.41385 469.45,442.025 C 470.02148,440.04615 470.61708,438.08482 471.15,436.1 C 468.11176,436.05388 464.90787,435.4222 462,436.525 C 459.45367,437.73933 456.17606,440.28816 457.775,443.475 C 459.96116,447.6727 465.1432,448.23843 468.825,450.55 C 473.367,454.67004 477.01106,459.69696 481.525,463.85 C 483.26516,465.17825 486.48704,467.2518 488.175,464.85 C 491.67918,460.29502 494.3491,455.09191 498.4,450.95 C 500.78591,448.23651 504.04726,446.43889 506.375,443.675 C 506.33583,443.11911 506.23917,442.00589 506.2,441.45 C 503.08026,438.69555 499.11586,437.15315 496.05,434.325 C 491.57412,430.81185 489.18029,425.49128 486.475,420.65 C 486.1335,420.62821 485.78874,420.62192 485.45,420.625 z M 485.175,446.675 C 484.49074,448.88572 483.42489,451.00994 481,451.65 C 481.73263,449.49573 483.32868,447.91595 485.175,446.675 z M 489.775,451.425 C 488.95414,452.62509 488.12144,453.84017 487.275,455.025 C 486.43871,454.41259 485.59872,453.80114 484.775,453.2 C 486.43023,452.60175 488.10528,452.00288 489.775,451.425 z"
       id="path2918" />
    <path
       style="opacity:1;fill:none;stroke:#020202;stroke-width:0.1;stroke-linecap:butt;stroke-linejoin:miter;stroke-miterlimit:10"
       d="M 105.59727,429.94531 C 106.16007,424.27753 112.31411,421.68097 117.36361,421.76637 C 118.14082,424.50529 118.64268,427.31306 119.02622,430.13738 C 121.03477,431.0303 124.50892,431.07539 124.28782,434.04999 C 124.1703,437.44734 121.84077,440.25691 120.52372,443.28037 C 125.75051,442.06061 131.5588,442.30562 136.10851,445.43158 C 139.49571,447.33215 141.0742,451.04738 142.59643,454.4183 C 136.11303,452.76738 129.56988,451.25009 122.81791,451.59259 C 119.22244,451.55737 119.70792,446.9445 119.12509,444.47116 C 116.61086,443.87254 114.07469,443.36855 111.59385,442.64916 C 111.81938,440.27856 112.32392,437.95117 112.59141,435.5925 C 109.95712,434.31545 106.04803,433.36694 105.59727,429.94531 z"
       id="path2920" />
    <path
       style="opacity:1;fill:#020202;fill-rule:nonzero;stroke:none"
       d="M 105.59727,429.94531 C 106.16007,424.27753 112.31411,421.68097 117.36361,421.76637 C 118.14082,424.50529 118.64268,427.31306 119.02622,430.13738 C 121.03477,431.0303 124.50892,431.07539 124.28782,434.04999 C 124.1703,437.44734 121.84077,440.25691 120.52372,443.28037 C 125.75051,442.06061 131.5588,442.30562 136.10851,445.43158 C 139.49571,447.33215 141.0742,451.04738 142.59643,454.4183 C 136.11303,452.76738 129.56988,451.25009 122.81791,451.59259 C 119.22244,451.55737 119.70792,446.9445 119.12509,444.47116 C 116.61086,443.87254 114.07469,443.36855 111.59385,442.64916 C 111.81938,440.27856 112.32392,437.95117 112.59141,435.5925 C 109.95712,434.31545 106.04803,433.36694 105.59727,429.94531 z"
       id="path2922" />
    <path
       style="opacity:1;fill:none;stroke:#020202;stroke-width:0.1;stroke-linecap:butt;stroke-linejoin:miter;stroke-miterlimit:10"
       d="M 510.37936,435.44579 C 512.86758,436.78331 514.73025,438.91605 516.38458,441.1647 C 518.58004,438.80707 521.47831,437.41965 524.67849,437.07556 C 524.79986,438.87251 525.38424,440.73784 524.95295,442.53093 C 519.71662,454.31589 509.40513,462.7195 503.06851,473.79324 C 503.95699,474.89346 504.86295,475.99059 505.78639,477.08463 C 512.63714,468.88884 517.02937,458.68198 525.37681,451.74608 C 527.50489,450.33929 530.12814,450.03303 532.57911,449.52629 C 532.31773,451.65317 532.61083,454.00949 531.51443,455.94382 C 526.50837,463.13805 519.98031,469.07932 514.38099,475.78037 C 510.68147,480.97444 506.93698,487.23178 500.08866,488.43242 C 498.71195,486.162 497.35401,483.88788 495.84113,481.71513 C 492.66502,484.66736 490.1464,488.4032 486.40444,490.69437 C 482.36187,490.20695 480.88107,485.89818 480.19445,482.46236 C 483.97355,481.13502 488.67867,480.6684 490.96771,476.91504 C 490.48965,474.21167 488.57668,472.11491 487.21195,469.83546 C 489.12418,466.71011 492.26762,464.78715 494.86759,462.32842 C 501.41564,454.27022 507.90989,445.75185 510.37936,435.44579 z"
       id="path2924" />
    <path
       style="opacity:1;fill:#020202;fill-rule:nonzero;stroke:none"
       d="M 510.37936,435.44579 C 512.86758,436.78331 514.73025,438.91605 516.38458,441.1647 C 518.58004,438.80707 521.47831,437.41965 524.67849,437.07556 C 524.79986,438.87251 525.38424,440.73784 524.95295,442.53093 C 519.71662,454.31589 509.40513,462.7195 503.06851,473.79324 C 503.95699,474.89346 504.86295,475.99059 505.78639,477.08463 C 512.63714,468.88884 517.02937,458.68198 525.37681,451.74608 C 527.50489,450.33929 530.12814,450.03303 532.57911,449.52629 C 532.31773,451.65317 532.61083,454.00949 531.51443,455.94382 C 526.50837,463.13805 519.98031,469.07932 514.38099,475.78037 C 510.68147,480.97444 506.93698,487.23178 500.08866,488.43242 C 498.71195,486.162 497.35401,483.88788 495.84113,481.71513 C 492.66502,484.66736 490.1464,488.4032 486.40444,490.69437 C 482.36187,490.20695 480.88107,485.89818 480.19445,482.46236 C 483.97355,481.13502 488.67867,480.6684 490.96771,476.91504 C 490.48965,474.21167 488.57668,472.11491 487.21195,469.83546 C 489.12418,466.71011 492.26762,464.78715 494.86759,462.32842 C 501.41564,454.27022 507.90989,445.75185 510.37936,435.44579 z"
       id="path2926" />
    <path
       style="opacity:1;fill:none;stroke:#020202;stroke-width:0.1;stroke-linecap:butt;stroke-linejoin:miter;stroke-miterlimit:10"
       d="M 172.12202,484.17407 C 174.44255,482.94702 177.25076,480.9097 179.8552,482.70371 C 189.55831,488.47829 193.86363,499.36668 198.19982,509.2019 C 205.60027,506.95837 212.5872,502.5106 220.55506,502.80403 C 222.92259,502.67043 223.77548,505.08441 224.83569,506.71983 C 219.73208,509.91969 213.6092,510.80498 208.42548,513.83412 C 204.50297,516.10906 200.57601,518.53715 197.35671,521.76434 C 193.89192,525.3401 194.09638,530.63544 192.64553,535.09378 C 191.86564,537.85023 188.35487,538.38577 185.93072,537.89697 C 183.29896,537.37621 182.94322,534.22601 182.94277,532.03108 C 182.94788,526.44145 186.87417,522.08903 190.0397,517.88931 C 188.41827,511.91077 186.43806,506.03793 184.22843,500.2567 C 182.3825,495.19904 177.63461,492.23157 173.95797,488.62746 C 172.68937,487.49092 172.65145,485.67027 172.12202,484.17407 z"
       id="path2940" />
    <path
       style="opacity:1;fill:#020202;fill-rule:nonzero;stroke:none"
       d="M 172.12202,484.17407 C 174.44255,482.94702 177.25076,480.9097 179.8552,482.70371 C 189.55831,488.47829 193.86363,499.36668 198.19982,509.2019 C 205.60027,506.95837 212.5872,502.5106 220.55506,502.80403 C 222.92259,502.67043 223.77548,505.08441 224.83569,506.71983 C 219.73208,509.91969 213.6092,510.80498 208.42548,513.83412 C 204.50297,516.10906 200.57601,518.53715 197.35671,521.76434 C 193.89192,525.3401 194.09638,530.63544 192.64553,535.09378 C 191.86564,537.85023 188.35487,538.38577 185.93072,537.89697 C 183.29896,537.37621 182.94322,534.22601 182.94277,532.03108 C 182.94788,526.44145 186.87417,522.08903 190.0397,517.88931 C 188.41827,511.91077 186.43806,506.03793 184.22843,500.2567 C 182.3825,495.19904 177.63461,492.23157 173.95797,488.62746 C 172.68937,487.49092 172.65145,485.67027 172.12202,484.17407 z"
       id="path2942" />
    <path
       style="opacity:1;fill:#020202;fill-rule:nonzero;stroke:none"
       d="M 423.53872,486.31291 C 421.38684,486.44059 418.36526,485.97953 417.51372,488.58791 C 414.9834,494.23247 419.63008,499.74748 420.86372,505.18791 C 417.35834,505.70797 412.83666,505.58702 410.56372,508.73791 C 408.52894,512.0645 411.1663,515.45519 413.33872,517.88791 C 418.74436,523.93702 420.84104,532.20597 426.36372,538.13791 C 430.06689,534.80335 433.92978,531.66725 438.01372,528.81291 C 439.76107,527.45923 438.51774,524.99397 437.78872,523.41291 C 434.80038,518.00542 431.0713,512.91123 429.31372,506.91291 C 427.02778,500.14835 424.72151,493.3738 423.53872,486.31291 z M 423.01372,510.26291 C 425.0942,512.45448 424.84311,515.1939 423.18872,517.53791 C 422.01618,515.83299 420.9043,514.10824 419.81372,512.36291 C 420.87546,511.65294 421.93439,510.94931 423.01372,510.26291 z M 430.91372,523.73791 C 430.75108,524.49723 430.42638,526.02857 430.26372,526.78791 C 428.88361,526.9593 427.4933,527.03929 426.11372,527.01291 C 426.8283,524.78376 428.66375,523.81459 430.91372,523.73791 z"
       id="path2946" />
    <path
       style="opacity:1;fill:none;stroke:#020202;stroke-width:0.1;stroke-linecap:butt;stroke-linejoin:miter;stroke-miterlimit:10"
       d="M 385.42687,496.00481 C 390.1741,492.146 394.97439,487.55631 401.29214,486.6694 C 401.80927,488.90353 402.67271,491.18614 402.17785,493.51884 C 400.98377,500.30814 401.69381,507.20136 401.86883,514.04123 C 399.36747,514.935 396.24511,517.09612 393.89199,514.69923 C 391.95133,510.07848 393.41201,504.99591 393.02671,500.1637 C 390.81355,499.54916 388.59599,498.97032 386.40162,498.32115 C 386.15794,497.74207 385.67057,496.58389 385.42687,496.00481 z"
       id="path2948" />
    <path
       style="opacity:1;fill:#020202;fill-rule:nonzero;stroke:none"
       d="M 385.42687,496.00481 C 390.1741,492.146 394.97439,487.55631 401.29214,486.6694 C 401.80927,488.90353 402.67271,491.18614 402.17785,493.51884 C 400.98377,500.30814 401.69381,507.20136 401.86883,514.04123 C 399.36747,514.935 396.24511,517.09612 393.89199,514.69923 C 391.95133,510.07848 393.41201,504.99591 393.02671,500.1637 C 390.81355,499.54916 388.59599,498.97032 386.40162,498.32115 C 386.15794,497.74207 385.67057,496.58389 385.42687,496.00481 z"
       id="path2950" />
    <path
       style="opacity:1;fill:#020202;fill-rule:nonzero;stroke:none"
       d="M 387.89756,503.625 C 387.56412,503.62562 387.23297,503.64903 386.89756,503.675 C 385.25988,506.05434 383.80808,508.54131 382.17256,510.925 C 376.86728,509.36838 371.714,505.43219 365.94756,506.95 C 359.01672,509.65618 353.04232,514.27146 347.52256,519.175 C 347.85192,519.84037 348.5182,521.15962 348.84756,521.825 C 356.76392,519.39815 365.12143,517.07175 373.44756,518.7 C 377.18796,518.94577 377.46707,523.52051 379.99756,525.5 C 381.99785,525.91292 384.03517,525.79122 386.07256,525.825 C 382.88716,527.75211 379.39485,529.33598 376.79756,532.075 C 376.13104,534.0501 376.62657,536.19014 377.04756,538.175 C 378.28449,542.89613 379.55013,547.77595 382.39756,551.825 C 384.36585,554.58302 388.15236,553.57262 390.94756,553.05 C 396.83851,552.12143 400.89388,547.12518 406.54756,545.6 C 408.41784,545.00875 410.21763,544.27307 412.02256,543.5 C 410.66189,539.28533 408.67756,535.32156 407.14756,531.175 C 406.159,528.87653 405.47904,526.36483 403.84756,524.425 C 401.3552,522.63867 397.83019,522.78555 395.64756,520.525 C 393.7336,518.49953 391.53186,516.68421 390.09756,514.275 C 390.20456,510.8303 391.1328,507.44078 390.87256,503.975 C 389.88985,503.74878 388.89791,503.62314 387.89756,503.625 z M 397.84756,530.675 C 394.67903,534.18432 390.30747,536.92632 385.67256,537.9 C 385.65446,537.41974 385.61567,536.48027 385.59756,536 C 389.21774,533.41265 393.27536,530.90453 397.84756,530.675 z M 398.14756,539.3 C 398.37572,539.28749 398.59519,539.29402 398.82256,539.3 C 400.03526,539.33186 401.22942,539.62927 402.39756,540.35 C 398.2466,542.47683 394.09012,544.80861 389.44756,545.65 C 388.97635,544.66497 388.50964,543.69584 388.04756,542.725 C 391.22013,541.66286 394.72519,539.4877 398.14756,539.3 z"
       id="path2954" />
    <path
       style="opacity:1;fill:#020202;fill-rule:nonzero;stroke:none"
       d="M 216.975,517.975 C 212.83837,518.07966 211.54466,522.54524 209.45,525.325 C 207.91524,527.96658 204.7635,530.76858 206.075,534.1 C 208.277,537.85269 213.12735,537.99964 216.75,539.6 C 220.3367,540.50383 222.77454,543.43783 225.95,545.1 C 228.34204,545.87486 230.13372,543.67728 231.175,541.85 C 234.02141,537.51102 232.1788,532.16561 232.425,527.35 C 232.69316,525.08418 231.35686,522.90023 229.175,522.2 C 225.16641,520.68344 221.21422,518.67978 216.975,517.975 z M 220.925,528.325 C 221.96182,528.32866 223.01578,528.42734 224.05,528.575 C 224.02687,530.27802 223.96782,531.98551 223.875,533.7 C 221.26989,533.57038 218.67705,533.30186 216.125,532.775 C 216.0732,531.93462 215.9518,530.24039 215.9,529.4 C 217.48928,528.57906 219.19696,528.31891 220.925,528.325 z"
       id="path2962" />
  </g>
  <path
     style="opacity:1;fill:#fdab1c;fill-opacity:1;fill-rule:nonzero;stroke:none"
     d="M 216.0797,452.7157 C 210.90179,454.24075 205.82867,456.1717 200.5361,457.28505 C 196.98843,458.15615 194.09851,455.26054 191.24275,453.63739 C 185.41651,449.3663 179.10554,445.79546 173.37275,441.39668 C 161.97657,431.85217 151.03166,421.62264 141.98584,409.77381 C 138.50953,404.96206 134.37992,400.6417 131.26534,395.56493 C 117.19231,375.45583 107.81327,352.20205 103.39211,328.09368 C 101.92733,316.5722 99.60522,305.08196 99.92214,293.41097 C 100.24855,277.1531 100.65431,260.72343 104.91366,244.91954 C 108.05862,228.81276 113.88568,213.32851 121.25429,198.7027 C 124.76123,193.24018 126.96396,187.09716 130.21927,181.51036 C 133.70526,176.76157 137.19477,171.9374 139.347,166.40148 C 131.8315,167.07817 125.03446,171.14872 117.42991,171.07306 C 119.91682,165.37392 124.70154,161.2647 128.77176,156.7346 C 134.24498,151.20114 140.42315,146.42613 146.33695,141.38819 C 154.64337,136.33656 162.68486,130.78354 171.45439,126.53605 C 181.46624,121.56374 192.31058,118.68114 202.9908,115.54753 C 211.31261,113.21461 219.99136,112.80576 228.46447,111.27773 C 232.11076,110.56069 235.86848,110.70303 239.44373,111.70462 C 234.42032,116.92465 227.23877,119.08292 221.68694,123.62002 C 216.51944,127.79256 210.97865,131.51542 206.09491,136.02892 C 185.57576,154.8446 170.7085,179.17903 160.75514,205.03495 C 160.18243,205.13275 159.03697,205.32835 158.46426,205.42616 C 157.86271,195.74254 158.64729,185.93353 157.02227,176.34135 C 145.09392,192.5225 138.29709,211.71443 132.52829,230.78182 C 129.25515,241.49887 128.07119,252.71089 126.94053,263.81584 C 125.03132,277.16407 126.6024,290.68692 128.3894,303.95475 C 130.5462,318.25015 134.90941,332.11292 140.06826,345.58221 C 143.78467,354.16619 148.76255,362.13678 153.34976,370.26869 C 165.607,388.26715 180.44629,404.83161 198.46224,417.2247 C 204.79592,422.1258 211.95478,425.75673 218.68402,430.05084 C 226.84261,435.24826 236.0863,438.30658 244.87104,442.22699 C 244.92548,442.88068 245.03436,444.1881 245.08881,444.8418 C 235.54869,447.9287 225.65815,449.7542 216.0797,452.7157 z"
     id="path3481" />
  <g
     id="gYinAndYang"
     inkscape:label="#Yin and Yang"
     transform="matrix(0.375,0,0,-0.375,141.425,444.375)">
    <g
       transform="matrix(-1,0,0,-1,825,825)"
       style="fill:#000000;fill-opacity:1"
       inkscape:label="#Yin"
       id="gYin">
      <path
         style="fill:#fa0000;fill-opacity:1;stroke:none;stroke-width:0.5;stroke-linecap:butt;stroke-miterlimit:4;stroke-opacity:1"
         d="M 425,25 C 204.2,25 25,204.2 25,425 C 25,645.8 204.2,825 425,825 C 314.6,825 225,735.4 225,625 C 225,514.6 314.6,425 425,425 C 535.4,425 625,335.4 625,225 C 625,114.6 535.4,25 425,25 z M 425,162.5 C 459.5,162.5 487.5,190.5 487.5,225 C 487.5,259.5 459.5,287.5 425,287.5 C 390.5,287.5 362.5,259.5 362.5,225 C 362.5,190.5 390.5,162.5 425,162.5 z"
         transform="matrix(-1,0,0,-1,825,825)"
         id="pathYinBG" />
      <path
         transform="matrix(1.25,0,0,1.25,-100,-50)"
         sodipodi:type="arc"
         style="opacity:1;fill:#fa0000;fill-opacity:1;stroke:none;stroke-width:0.5;stroke-linecap:butt;stroke-miterlimit:4;stroke-dasharray:none;stroke-opacity:1"
         id="pathYinS"
         sodipodi:cx="400"
         sodipodi:cy="200"
         sodipodi:rx="50"
         sodipodi:ry="50"
         d="M 450,200 A 50,50 0 1 1 350,200 A 50,50 0 1 1 450,200 z"
         inkscape:label="#Yin Spot" />
    </g>
    <g
       inkscape:label="#Yang"
       id="gYang">
      <path
         id="pathYangBG"
         d="M 425,25 C 535.4,25 625,114.6 625,225 C 625,335.4 535.4,425 425,425 C 314.6,425 225,514.6 225,625 C 225,735.4 314.6,825 425,825 C 645.8,825 825,645.8 825,425 C 825,204.2 645.8,25 425,25 z M 425,562.5 C 459.5,562.5 487.5,590.5 487.5,625 C 487.5,659.5 459.5,687.5 425,687.5 C 390.5,687.5 362.5,659.5 362.5,625 C 362.5,590.5 390.5,562.5 425,562.5 z"
         style="fill:#fdab00;fill-opacity:1;stroke:none;stroke-width:0.5;stroke-linecap:butt;stroke-miterlimit:4;stroke-dasharray:none;stroke-opacity:1" />
      <path
         inkscape:label="#Yang Spot"
         transform="matrix(1.25,0,0,-1.25,-75,475)"
         d="M 450,200 A 50,50 0 1 1 350,200 A 50,50 0 1 1 450,200 z"
         sodipodi:ry="50"
         sodipodi:rx="50"
         sodipodi:cy="200"
         sodipodi:cx="400"
         id="pathYangS"
         style="fill:#fdab1c;fill-opacity:1;stroke:none;stroke-width:0.5;stroke-linecap:butt;stroke-miterlimit:4;stroke-dasharray:none;stroke-opacity:1"
         sodipodi:type="arc" />
    </g>
  </g>
</svg>
